<svg width="283" height="283" viewBox="0 0 283 283" fill="none" xmlns="http://www.w3.org/2000/svg">
<path fill-rule="evenodd" clip-rule="evenodd" d="M142.065 152.939V181.47H105.075V157.931L105.076 157.931L105.076 161.694L153.076 134.91L182.391 145.259C181.958 145.794 181.489 146.305 180.985 146.792C178.883 148.824 176.081 150.365 172.578 151.416C169.075 152.432 164.732 152.939 159.547 152.939H142.065ZM152.994 120.048L183.835 143.179C184.532 141.991 185.089 140.708 185.503 139.331C186.414 136.424 186.87 133.079 186.87 129.295C186.87 125.547 186.414 122.115 185.503 118.997C184.628 115.88 183.121 113.235 180.985 111.063C178.883 108.857 176.081 107.14 172.578 105.914C169.075 104.688 164.732 104.075 159.547 104.075H105.075V123.463C107.563 123.463 108.034 123.806 108.823 124.38C109.011 124.517 109.218 124.667 109.475 124.829C110.806 125.635 111.471 127.194 111.471 129.506V149.961L152.994 120.048Z" fill="#003087"/>
<path d="M63.9824 102.542L48.2934 94.0161L49.2101 92.3291C49.6176 91.5793 50.0994 91.0278 50.6556 90.6745C51.222 90.3024 51.8721 90.1337 52.606 90.1683C53.3211 90.1928 54.1285 90.4494 55.0282 90.9384C55.9092 91.4171 56.5826 91.9652 57.0484 92.5825C57.4954 93.1896 57.7305 93.8515 57.7538 94.5683C57.7685 95.2561 57.5619 95.9937 57.1341 96.7809L55.8048 99.2271L57.9417 100.388L59.8821 96.8175C60.7683 95.1867 61.2742 93.6528 61.3996 92.2156C61.5165 90.7495 61.2795 89.4431 60.6886 88.2965C60.079 87.1397 59.1369 86.2149 57.8622 85.5223C55.9691 84.4935 54.1403 84.3737 52.376 85.1631C50.5929 85.9423 49.0341 87.5596 47.6997 90.0151L42.138 100.25L43.9656 101.243L44.1184 100.962C44.3832 100.474 44.6678 100.107 44.9722 99.8595C45.2766 99.6121 45.635 99.6005 46.0473 99.8246L60.3306 107.587C60.7429 107.811 60.9281 108.118 60.8862 108.508C60.8442 108.898 60.6908 109.336 60.426 109.824L60.2732 110.105L62.1008 111.098L67.3416 101.454L65.514 100.461L65.132 101.164C65.0302 101.351 64.9283 101.539 64.8265 101.726C64.716 101.885 64.6107 102.034 64.5105 102.173C64.3915 102.303 64.2972 102.41 64.2275 102.493C64.1391 102.566 64.0574 102.583 63.9824 102.542Z" fill="#003087"/>
<path d="M85.3089 68.9479L90.1985 74.2765L76.5939 86.7599L75.1876 85.2274L75.4234 85.011C75.8321 84.636 76.1196 84.2709 76.2858 83.9157C76.4521 83.5604 76.3766 83.2099 76.0592 82.8641L65.0686 70.8864C64.7513 70.5406 64.4086 70.4353 64.0404 70.5705C63.6722 70.7056 63.2838 70.9607 62.8751 71.3357L62.6393 71.5521L61.233 70.0195L74.201 58.1202L78.5496 62.8594L76.6162 64.6335L74.6535 62.8732C74.3782 62.6047 74.0734 62.4934 73.7393 62.5395C73.4064 62.5554 73.0376 62.7056 72.6328 62.9902C72.2437 63.2603 71.7977 63.6262 71.2947 64.0877L69.0783 66.1214L81.1507 79.278L83.6028 77.0279C84.0744 76.5952 84.468 76.2196 84.7837 75.901C85.1006 75.5522 85.3252 75.2448 85.4574 74.9787C85.6054 74.6982 85.6767 74.4446 85.6713 74.2179C85.6515 73.9754 85.5558 73.7448 85.384 73.5261L83.352 70.7436L85.3089 68.9479ZM73.5673 72.3388C74.137 71.7291 74.7134 71.1424 75.2963 70.5786C75.8647 69.9991 76.4253 69.4267 76.9781 68.8616C77.5321 68.2664 78.0855 67.6862 78.6383 67.1211L80.6287 69.2903C80.0038 69.7768 79.3783 70.2784 78.7521 70.795C78.1273 71.2815 77.5018 71.7831 76.8756 72.2998C76.2495 72.8164 75.6154 73.3403 74.9736 73.8714L73.5673 72.3388Z" fill="#003087"/>
<path d="M101.83 55.9609L110.014 63.6162L116.595 60.7753L115.771 58.8656L115.536 58.9671C115.301 59.0685 115.087 59.1377 114.893 59.1746C114.7 59.2116 114.51 59.2009 114.322 59.1425C114.126 59.0646 113.922 58.9433 113.712 58.7786L106.991 53.1406L101.83 55.9609ZM103.04 64.0126L95.9252 47.5307L97.8936 46.681C98.5987 46.3766 99.2539 46.2797 99.8593 46.3901C100.456 46.481 100.995 46.7597 101.475 47.2263C101.975 47.6843 102.394 48.3051 102.732 49.0886C103.112 49.97 103.311 50.779 103.327 51.5157C103.354 52.2243 103.194 52.8508 102.848 53.3951C102.502 53.9395 101.948 54.3765 101.184 54.7063L98.7158 55.7716L99.6416 57.9163L102.609 56.6354C102.785 56.5593 102.942 56.4916 103.079 56.4324C103.227 56.3452 103.375 56.258 103.524 56.1708C103.672 56.0835 103.801 56.0048 103.91 55.9344C105.454 55.1517 106.66 54.2591 107.529 53.2568C108.397 52.2545 108.916 51.1943 109.084 50.0761C109.243 48.9384 109.069 47.782 108.562 46.6068C108.038 45.3925 107.268 44.4701 106.252 43.8397C105.236 43.2093 104.025 42.9071 102.619 42.9332C101.213 42.9593 99.6482 43.3444 97.9246 44.0884L87.2599 48.6922L88.0842 50.6018L88.378 50.475C88.8873 50.2552 89.338 50.142 89.7301 50.1353C90.1223 50.1287 90.4114 50.3408 90.5974 50.7717L97.0401 65.6965C97.2261 66.1274 97.1822 66.4833 96.9084 66.7641C96.6347 67.0449 96.2431 67.2953 95.7339 67.5151L95.4401 67.6419L96.2645 69.5516L105.842 65.4171L105.018 63.5074L104.724 63.6342C104.548 63.7103 104.362 63.7907 104.166 63.8752C103.981 63.9317 103.806 63.984 103.641 64.0321C103.467 64.0605 103.327 64.0861 103.221 64.1088C103.126 64.1034 103.065 64.0714 103.04 64.0126Z" fill="#003087"/>
<path d="M134.243 47.8904L139.197 57.9424L146.358 57.6083L146.261 55.5306L146.005 55.5425C145.749 55.5544 145.524 55.5436 145.331 55.5099C145.137 55.4762 144.962 55.3989 144.807 55.278C144.651 55.1358 144.504 54.9505 144.365 54.7221L140.068 47.0741L134.243 47.8904ZM132.533 55.8509L131.696 37.9184L133.837 37.8184C134.605 37.7826 135.252 37.9233 135.779 38.2404C136.306 38.5361 136.711 38.9871 136.996 39.5931C137.301 40.1982 137.474 40.9269 137.514 41.7793C137.559 42.7383 137.459 43.5652 137.213 44.2601C136.988 44.9326 136.618 45.4624 136.102 45.8496C135.586 46.2367 134.913 46.4497 134.082 46.4885L131.397 46.6138L131.506 48.9472L134.734 48.7966C134.926 48.7876 135.096 48.7796 135.246 48.7727C135.415 48.7434 135.585 48.7142 135.754 48.6849C135.924 48.6556 136.072 48.6274 136.199 48.6001C137.92 48.413 139.364 48.0039 140.53 47.3728C141.697 46.7418 142.556 45.9328 143.108 44.946C143.659 43.9379 143.904 42.7946 143.845 41.5159C143.783 40.1947 143.388 39.0599 142.661 38.1114C141.933 37.163 140.907 36.4527 139.582 35.9806C138.257 35.5085 136.657 35.3163 134.782 35.4038L123.179 35.9453L123.275 38.023L123.595 38.0081C124.149 37.9822 124.611 38.0354 124.98 38.1677C125.349 38.3 125.545 38.6005 125.567 39.0693L126.325 55.3077C126.346 55.7765 126.18 56.0939 125.824 56.26C125.469 56.4261 125.014 56.522 124.46 56.5479L124.141 56.5628L124.238 58.6406L134.658 58.1543L134.561 56.0765L134.242 56.0914C134.05 56.1004 133.847 56.1098 133.634 56.1198C133.442 56.1074 133.259 56.0946 133.088 56.0812C132.915 56.0465 132.775 56.021 132.668 56.0047C132.581 55.9661 132.536 55.9148 132.533 55.8509Z" fill="#003087"/>
<path d="M165.931 62.4779C164.318 61.9189 162.928 61.1432 161.759 60.1509C160.59 59.1587 159.67 58.0041 158.997 56.6872C158.345 55.3772 157.971 53.9492 157.875 52.4031C157.806 50.8438 158.058 49.2377 158.631 47.5849C159.204 45.9321 159.996 44.5248 161.009 43.363C162.041 42.2082 163.219 41.3182 164.542 40.6931C165.893 40.0549 167.334 39.7078 168.866 39.652C170.398 39.5961 171.97 39.8477 173.583 40.4068C175.195 40.9658 176.586 41.7415 177.755 42.7338C178.924 43.7261 179.831 44.8872 180.476 46.2173C181.148 47.5342 181.522 48.9623 181.598 50.5014C181.674 52.0406 181.426 53.6365 180.853 55.2894C180.28 56.9422 179.484 58.3596 178.464 59.5415C177.452 60.7033 176.274 61.5932 174.931 62.2113C173.608 62.8364 172.18 63.1769 170.648 63.2327C169.116 63.2886 167.543 63.037 165.931 62.4779ZM166.769 60.0592C167.515 60.3177 168.253 60.3704 168.984 60.2173C169.741 60.0509 170.468 59.6818 171.163 59.1099C171.865 58.5179 172.512 57.7262 173.104 56.7348C173.716 55.7503 174.263 54.5627 174.746 53.1719C175.228 51.7812 175.533 50.5097 175.662 49.3575C175.81 48.2124 175.789 47.2001 175.597 46.3208C175.412 45.4212 175.07 44.6818 174.571 44.1023C174.099 43.5097 173.49 43.0841 172.744 42.8255C171.999 42.567 171.247 42.5209 170.489 42.6872C169.759 42.8404 169.042 43.213 168.34 43.805C167.645 44.3769 166.992 45.1551 166.38 46.1395C165.767 47.1239 165.22 48.3115 164.738 49.7023C164.256 51.0931 163.95 52.3645 163.822 53.5167C163.693 54.6688 163.722 55.6947 163.906 56.5942C164.098 57.4736 164.43 58.2095 164.902 58.8022C165.401 59.3816 166.024 59.8006 166.769 60.0592Z" fill="#003087"/>
<path d="M197.028 69.0622C196.284 69.9136 195.724 70.6996 195.35 71.4203C195.005 72.139 194.831 72.8084 194.827 73.4285C194.823 74.0487 194.968 74.6286 195.262 75.1682C195.555 75.7079 195.983 76.2234 196.545 76.7147C197.075 77.178 197.634 77.5108 198.222 77.7131C198.827 77.9295 199.436 77.9943 200.05 77.9076C200.694 77.8189 201.349 77.5556 202.015 77.1177C202.695 76.6637 203.407 76.011 204.151 75.1596L211.479 66.7743C211.549 66.694 211.564 66.5796 211.524 66.4311C211.5 66.2967 211.429 66.1502 211.313 65.9918C211.21 65.8172 211.078 65.6447 210.915 65.4742C210.783 65.3017 210.628 65.1383 210.451 64.9838L210.234 64.7943L211.603 63.2281L216.952 67.9028L215.584 69.469L215.343 69.2584C215.07 69.0198 214.793 68.8343 214.512 68.702C214.261 68.5677 214.008 68.5167 213.753 68.549C213.512 68.5652 213.272 68.7098 213.034 68.9829L206.127 76.8863C205.06 78.1072 203.972 79.0119 202.862 79.6006C201.783 80.1873 200.693 80.4951 199.591 80.5239C198.519 80.5506 197.469 80.3416 196.442 79.8967C195.414 79.4518 194.442 78.8293 193.527 78.0291C192.45 77.0886 191.591 76.1108 190.948 75.0957C190.319 74.0645 189.922 72.9951 189.757 71.8874C189.622 70.7777 189.764 69.6417 190.185 68.4795C190.622 67.3313 191.367 66.1548 192.42 64.95L199.453 56.9021C199.761 56.5487 199.828 56.1964 199.654 55.8453C199.479 55.4942 199.183 55.1362 198.765 54.7712L198.524 54.5606L199.893 52.9944L207.892 59.9853L206.524 61.5516L206.307 61.362C206.146 61.2217 205.971 61.0823 205.78 60.9439C205.619 60.8036 205.452 60.6863 205.28 60.592C205.121 60.4818 204.98 60.4006 204.855 60.3485C204.761 60.2944 204.693 60.2914 204.651 60.3396L197.028 69.0622Z" fill="#003087"/>
<path d="M225.465 81.3687L227.299 80.3873L232.387 89.8954L230.554 90.8768L230.312 90.4254C230.191 90.1997 230.056 89.9696 229.906 89.7352C229.757 89.5007 229.618 89.3089 229.489 89.1598C229.361 89.0106 229.26 88.9562 229.184 88.9964L224.971 96.5864L224.962 96.7728L219.424 107.177C219.18 107.67 219.062 108.06 219.07 108.346C219.078 108.632 219.187 108.973 219.399 109.368L219.55 109.65L217.716 110.632L212.537 100.954L214.371 99.9727L214.597 100.396C214.728 100.64 214.868 100.88 215.018 101.114C215.168 101.349 215.307 101.541 215.435 101.69C215.582 101.829 215.684 101.883 215.74 101.853L220.357 93.3214L220.379 93.0917L225.529 83.6576C225.701 83.3474 225.808 83.0724 225.849 82.8327C225.901 82.6117 225.895 82.3972 225.832 82.1889C225.779 81.9995 225.677 81.7637 225.526 81.4816L225.465 81.3687ZM207.101 90.7972L208.935 89.8157L209.086 90.0979C209.297 90.4929 209.568 90.7717 209.897 90.9344C210.226 91.097 210.725 91.2168 211.396 91.2937L222.181 92.5264L221.799 94.7274L211.632 93.635C211.538 93.6853 211.49 93.8203 211.486 94.0399C211.501 94.2494 211.561 94.4959 211.664 94.7794C211.767 95.0629 211.884 95.3268 212.015 95.5714L212.212 95.9381L210.378 96.9196L207.101 90.7972ZM224.005 97.9017L224.258 95.6613L232.854 96.3964C232.967 96.336 233.016 96.201 233 95.9915C232.995 95.8007 232.946 95.5731 232.853 95.3084C232.759 95.0437 232.642 94.7798 232.501 94.5164L232.305 94.1496L234.139 93.1682L237.355 99.1778L235.521 100.159L235.446 100.018C235.224 99.6043 234.944 99.3067 234.605 99.1252C234.285 98.9337 233.804 98.8038 233.162 98.7357L224.005 97.9017Z" fill="#003087"/>
<path d="M243.112 138.638C243.092 137.807 242.861 137.055 242.418 136.382C241.976 135.731 241.355 135.181 240.554 134.73C239.754 134.28 238.786 133.94 237.649 133.711C236.535 133.503 235.284 133.415 233.898 133.448C232.448 133.483 231.171 133.641 230.068 133.924C228.965 134.206 228.025 134.591 227.247 135.079C226.469 135.589 225.887 136.211 225.499 136.946C225.111 137.68 224.928 138.517 224.95 139.455C224.975 140.479 225.252 141.369 225.782 142.124C226.334 142.901 227.086 143.544 228.037 144.055C228.988 144.566 230.064 144.935 231.264 145.162L230.391 147.456C228.847 147.173 227.469 146.661 226.257 145.922C225.066 145.203 224.126 144.244 223.435 143.044C222.745 141.845 222.38 140.402 222.34 138.717C222.3 137.032 222.541 135.49 223.062 134.091C223.583 132.691 224.344 131.467 225.343 130.419C226.364 129.371 227.582 128.541 228.997 127.932C230.413 127.343 231.995 127.028 233.744 126.986C235.493 126.945 237.088 127.195 238.531 127.736C239.974 128.3 241.22 129.07 242.267 130.048C243.337 131.047 244.164 132.201 244.75 133.51C245.336 134.819 245.647 136.22 245.683 137.713C245.719 139.227 245.493 140.481 245.004 141.474C244.516 142.489 243.831 143.305 242.95 143.924C242.069 144.564 241.046 145.068 239.881 145.437L240.161 143.766L245.518 144.247L245.578 146.742L238.412 146.913L238.343 144.034C239.317 143.69 240.16 143.275 240.874 142.789C241.61 142.323 242.172 141.744 242.561 141.052C242.951 140.381 243.134 139.577 243.112 138.638Z" fill="#003087"/>
<path d="M217.941 167.203C218.519 165.597 219.31 164.215 220.316 163.058C221.322 161.901 222.487 160.994 223.811 160.337C225.129 159.699 226.561 159.342 228.108 159.263C229.668 159.212 231.271 159.483 232.917 160.075C234.563 160.667 235.961 161.476 237.112 162.502C238.254 163.547 239.131 164.735 239.74 166.066C240.363 167.423 240.694 168.868 240.732 170.401C240.77 171.934 240.5 173.503 239.923 175.109C239.345 176.715 238.553 178.096 237.548 179.254C236.542 180.411 235.37 181.305 234.033 181.934C232.708 182.592 231.276 182.949 229.736 183.008C228.196 183.066 226.603 182.799 224.957 182.207C223.311 181.615 221.903 180.802 220.733 179.769C219.583 178.744 218.707 177.556 218.104 176.205C217.494 174.875 217.17 173.444 217.132 171.911C217.094 170.378 217.363 168.809 217.941 167.203ZM220.35 168.069C220.083 168.812 220.022 169.55 220.166 170.282C220.324 171.041 220.685 171.772 221.249 172.473C221.833 173.182 222.617 173.838 223.601 174.442C224.579 175.065 225.76 175.626 227.145 176.124C228.53 176.623 229.798 176.943 230.948 177.084C232.092 177.246 233.104 177.236 233.986 177.055C234.887 176.88 235.631 176.547 236.216 176.054C236.814 175.589 237.247 174.985 237.514 174.243C237.781 173.5 237.836 172.749 237.678 171.989C237.533 171.257 237.169 170.536 236.585 169.828C236.021 169.126 235.251 168.464 234.273 167.84C233.296 167.217 232.115 166.656 230.73 166.157C229.344 165.659 228.077 165.339 226.926 165.198C225.775 165.056 224.749 165.072 223.848 165.247C222.966 165.428 222.226 165.752 221.628 166.217C221.043 166.709 220.617 167.327 220.35 168.069Z" fill="#003087"/>
<path d="M211.06 198.226C210.217 197.473 209.437 196.905 208.721 196.522C208.006 196.169 207.338 195.988 206.718 195.977C206.098 195.967 205.517 196.105 204.974 196.393C204.431 196.68 203.911 197.102 203.413 197.659C202.944 198.184 202.605 198.739 202.396 199.325C202.173 199.927 202.102 200.535 202.182 201.15C202.263 201.795 202.519 202.453 202.95 203.124C203.396 203.809 204.041 204.528 204.884 205.282L213.188 212.702C213.267 212.773 213.382 212.789 213.531 212.751C213.665 212.728 213.813 212.659 213.972 212.545C214.148 212.444 214.322 212.313 214.494 212.153C214.668 212.022 214.833 211.869 214.99 211.694L215.182 211.479L216.733 212.865L211.999 218.163L210.448 216.777L210.661 216.538C210.903 216.268 211.091 215.993 211.227 215.713C211.364 215.464 211.418 215.211 211.388 214.956C211.375 214.715 211.233 214.474 210.962 214.232L203.136 207.238C201.927 206.158 201.034 205.06 200.458 203.944C199.883 202.858 199.587 201.764 199.571 200.662C199.556 199.591 199.776 198.543 200.233 197.52C200.689 196.498 201.322 195.533 202.132 194.626C203.085 193.56 204.072 192.712 205.094 192.08C206.132 191.463 207.206 191.077 208.315 190.924C209.427 190.802 210.561 190.957 211.718 191.39C212.862 191.84 214.03 192.598 215.223 193.664L223.193 200.786C223.543 201.098 223.894 201.169 224.247 200.998C224.6 200.827 224.961 200.535 225.331 200.121L225.544 199.883L227.095 201.269L220.016 209.191L218.465 207.805L218.657 207.59C218.799 207.431 218.941 207.257 219.081 207.068C219.223 206.909 219.342 206.743 219.438 206.572C219.55 206.414 219.633 206.274 219.687 206.15C219.742 206.056 219.746 205.988 219.698 205.945L211.06 198.226Z" fill="#003087"/>
<path d="M178.048 216.275L179.649 216.993L182.586 234.19C182.645 234.304 182.779 234.354 182.989 234.341C183.18 234.338 183.418 234.286 183.702 234.186C183.968 234.096 184.233 233.981 184.498 233.843L184.895 233.636L185.856 235.481L179.982 238.542L179.021 236.698L179.163 236.624C179.579 236.407 179.856 236.154 179.995 235.866C180.143 235.596 180.169 235.161 180.073 234.562L176.718 214.623L181.996 211.872L196.825 226.408C197.116 226.69 197.409 226.813 197.704 226.78C198 226.746 198.346 226.626 198.743 226.419L198.885 226.345L199.846 228.189L190.624 232.996L189.662 231.152L190.117 230.915C190.362 230.787 190.613 230.644 190.868 230.487C191.123 230.33 191.326 230.189 191.476 230.062C191.627 229.935 191.682 229.834 191.643 229.759L178.048 216.275Z" fill="#003087"/>
<path d="M145.385 230.629L144.315 223.477L162.575 220.744L162.883 222.801L162.567 222.849C162.018 222.931 161.575 223.072 161.239 223.274C160.902 223.475 160.769 223.808 160.838 224.272L163.244 240.349C163.314 240.813 163.539 241.092 163.92 241.186C164.3 241.28 164.765 241.286 165.314 241.204L165.63 241.157L165.938 243.214L148.532 245.819L147.58 239.458L150.175 239.069L150.816 241.626C150.894 242.003 151.085 242.266 151.387 242.415C151.672 242.588 152.062 242.67 152.557 242.66C153.03 242.654 153.605 242.601 154.28 242.5L157.255 242.054L154.612 224.395L151.32 224.888C150.688 224.982 150.151 225.073 149.711 225.161C149.253 225.272 148.895 225.401 148.637 225.548C148.357 225.698 148.156 225.868 148.034 226.059C147.914 226.271 147.865 226.516 147.885 226.793L148.012 230.236L145.385 230.629ZM157.014 234.39C156.2 234.576 155.394 234.74 154.596 234.881C153.8 235.043 153.015 235.204 152.241 235.363C151.449 235.546 150.665 235.717 149.891 235.876L149.455 232.965C150.245 232.911 151.045 232.845 151.853 232.768C152.643 232.714 153.442 232.648 154.25 232.571C155.058 232.493 155.877 232.413 156.706 232.332L157.014 234.39Z" fill="#003087"/>
<path d="M124.63 232.168L122.14 221.242L115.098 219.907L114.71 221.951L114.962 221.999C115.214 222.046 115.43 222.109 115.61 222.187C115.791 222.264 115.943 222.38 116.066 222.533C116.185 222.708 116.285 222.922 116.367 223.177L118.775 231.613L124.63 232.168ZM128.139 224.821L124.797 242.459L122.69 242.06C121.936 241.917 121.339 241.63 120.899 241.2C120.456 240.79 120.166 240.257 120.03 239.602C119.872 238.942 119.873 238.193 120.032 237.355C120.211 236.412 120.5 235.631 120.899 235.011C121.274 234.409 121.757 233.98 122.349 233.723C122.94 233.466 123.645 233.415 124.462 233.57L127.103 234.07L127.538 231.775L124.362 231.173C124.174 231.137 124.006 231.106 123.859 231.078C123.688 231.067 123.516 231.056 123.344 231.045C123.173 231.035 123.022 231.028 122.892 231.025C121.175 230.808 119.675 230.871 118.394 231.215C117.113 231.558 116.09 232.146 115.324 232.978C114.555 233.831 114.051 234.886 113.813 236.144C113.566 237.444 113.687 238.639 114.175 239.73C114.663 240.821 115.497 241.75 116.676 242.516C117.856 243.283 119.368 243.841 121.212 244.19L132.625 246.353L133.012 244.309L132.698 244.249C132.153 244.146 131.716 243.987 131.388 243.773C131.059 243.559 130.938 243.221 131.026 242.76L134.052 226.788C134.139 226.327 134.375 226.057 134.759 225.978C135.143 225.899 135.608 225.911 136.153 226.014L136.467 226.073L136.855 224.03L126.605 222.088L126.218 224.131L126.532 224.191C126.721 224.227 126.92 224.264 127.13 224.304C127.314 224.361 127.488 224.416 127.652 224.468C127.812 224.542 127.942 224.599 128.043 224.64C128.119 224.698 128.151 224.758 128.139 224.821Z" fill="#003087"/>
<path d="M99.3838 216.301L90.4983 230.897L91.3456 231.413C92.0198 231.824 92.5922 232.135 93.0629 232.346C93.5153 232.547 93.8971 232.617 94.2085 232.557C94.5088 232.515 94.7826 232.332 95.0298 232.008L97.0895 229.178L99.4128 230.592L95.619 236.825L77.6062 225.859L81.4 219.627L83.696 221.025L82.1283 224.154C81.9358 224.511 81.8989 224.838 82.0178 225.135C82.1255 225.451 82.3723 225.763 82.7581 226.073C83.1439 226.383 83.674 226.743 84.3482 227.154L85.1955 227.669L94.0811 213.073C94.3251 212.672 94.3402 212.319 94.1263 212.014C93.8942 211.698 93.5412 211.396 93.0674 211.108L92.6848 210.875L93.7664 209.098L103.06 214.755L101.978 216.532L101.596 216.299C101.122 216.011 100.7 215.841 100.331 215.792C99.9436 215.731 99.6279 215.9 99.3838 216.301Z" fill="#003087"/>
<path d="M70.7814 200.221C71.6731 199.526 72.3711 198.86 72.8756 198.223C73.3501 197.583 73.6478 196.958 73.7687 196.35C73.8896 195.742 73.857 195.145 73.6711 194.56C73.4852 193.974 73.1627 193.387 72.7036 192.798C72.2707 192.243 71.7846 191.811 71.2454 191.501C70.693 191.174 70.1072 190.995 69.4878 190.964C68.8385 190.929 68.1455 191.064 67.4086 191.368C66.655 191.685 65.8323 192.191 64.9406 192.886L56.1585 199.733C56.0744 199.799 56.038 199.908 56.0494 200.062C56.0477 200.198 56.0891 200.356 56.1735 200.533C56.2411 200.724 56.3386 200.918 56.4661 201.117C56.5636 201.311 56.6845 201.501 56.8288 201.686L57.0059 201.913L55.3655 203.192L50.9975 197.59L52.6378 196.311L52.8346 196.563C53.0576 196.849 53.2945 197.084 53.5455 197.267C53.7665 197.446 54.0051 197.544 54.2615 197.561C54.501 197.59 54.7638 197.493 55.0498 197.27L63.3272 190.817C64.6058 189.82 65.8455 189.137 67.0463 188.769C68.2172 188.397 69.3462 188.301 70.4335 188.482C71.4909 188.658 72.4821 189.062 73.4071 189.693C74.3322 190.325 75.1686 191.12 75.9162 192.079C76.7951 193.206 77.4541 194.329 77.8933 195.447C78.3156 196.579 78.5031 197.704 78.4558 198.823C78.3785 199.938 78.0234 201.027 77.3903 202.088C76.7442 203.133 75.7902 204.147 74.5284 205.131L66.0996 211.703C65.7295 211.991 65.597 212.325 65.7023 212.703C65.8075 213.08 66.0306 213.488 66.3717 213.925L66.5684 214.178L64.9281 215.457L58.3957 207.078L60.036 205.799L60.2131 206.027C60.3442 206.195 60.4904 206.365 60.6515 206.537C60.7827 206.705 60.9241 206.852 61.0758 206.977C61.2107 207.115 61.3343 207.222 61.4467 207.296C61.5291 207.367 61.5955 207.383 61.646 207.344L70.7814 200.221Z" fill="#003087"/>
<path d="M51.8073 169.481L60.3158 162.188L58.2155 155.335L56.2268 155.944L56.3018 156.189C56.3768 156.434 56.422 156.654 56.4375 156.85C56.453 157.046 56.4214 157.234 56.3428 157.415C56.2437 157.601 56.1008 157.79 55.9139 157.981L49.5713 164.042L51.8073 169.481ZM59.9432 169.163L42.7791 174.423L42.1509 172.373C41.9259 171.639 41.9015 170.977 42.0779 170.388C42.2338 169.804 42.57 169.3 43.0865 168.874C43.5968 168.427 44.2599 168.079 45.0757 167.829C45.9936 167.548 46.8195 167.44 47.5535 167.505C48.2608 167.556 48.866 167.783 49.369 168.187C49.872 168.59 50.2454 169.19 50.4892 169.985L51.2768 172.555L53.5103 171.871L52.5633 168.781C52.507 168.597 52.457 168.434 52.4133 168.291C52.3428 168.134 52.2724 167.977 52.202 167.821C52.1316 167.664 52.0675 167.527 52.0096 167.411C51.4013 165.79 50.6467 164.493 49.746 163.519C48.8452 162.546 47.8484 161.914 46.7555 161.624C45.6422 161.341 44.4737 161.387 43.2498 161.762C41.9852 162.149 40.9838 162.813 40.2456 163.753C39.5073 164.694 39.0739 165.864 38.9453 167.264C38.8166 168.665 39.0274 170.263 39.5774 172.058L42.981 183.164L44.9697 182.554L44.876 182.248C44.7134 181.718 44.6504 181.258 44.6869 180.867C44.7235 180.477 44.9661 180.213 45.4148 180.075L60.9574 175.312C61.4061 175.174 61.755 175.257 62.004 175.56C62.2531 175.863 62.4588 176.28 62.6214 176.81L62.7151 177.116L64.7038 176.507L61.6472 166.533L59.6585 167.142L59.7522 167.448C59.8085 167.632 59.8679 167.825 59.9304 168.029C59.9662 168.219 59.999 168.399 60.0286 168.568C60.0378 168.744 60.0478 168.886 60.0587 168.994C60.0429 169.088 60.0044 169.145 59.9432 169.163Z" fill="#003087"/>
<path d="M50.7084 128.552L57.9331 128.876L57.1043 147.322L55.0264 147.228L55.0408 146.909C55.0657 146.354 55.0117 145.893 54.8788 145.524C54.7459 145.155 54.445 144.96 53.9761 144.939L37.7365 144.209C37.2676 144.188 36.9505 144.355 36.785 144.711C36.6196 145.067 36.5244 145.521 36.4995 146.075L36.4851 146.395L34.4072 146.302L35.1972 128.72L41.6227 129.008L41.5049 131.63L38.8721 131.768C38.4875 131.772 38.1931 131.908 37.9889 132.176C37.7642 132.422 37.609 132.789 37.523 133.277C37.438 133.743 37.3802 134.316 37.3495 134.998L37.2145 138.003L55.0525 138.805L55.2019 135.48C55.2306 134.841 55.2444 134.297 55.2432 133.848C55.2216 133.378 55.1638 133.001 55.0697 132.72C54.9765 132.416 54.8481 132.186 54.6843 132.03C54.4992 131.872 54.2686 131.776 53.9925 131.742L50.5892 131.205L50.7084 128.552ZM44.7826 139.24C44.756 138.406 44.7503 137.584 44.7654 136.773C44.7591 135.961 44.7524 135.16 44.7452 134.37C44.7177 133.557 44.7003 132.755 44.6931 131.965L47.6341 132.097C47.5348 132.883 47.4456 133.68 47.3666 134.488C47.2672 135.273 47.178 136.07 47.099 136.878C47.02 137.686 46.9405 138.505 46.8605 139.334L44.7826 139.24Z" fill="#003087"/>
<path fill-rule="evenodd" clip-rule="evenodd" d="M141.037 282.075C218.93 282.075 282.075 218.93 282.075 141.037C282.075 63.1446 218.93 0 141.037 0C63.1446 0 0 63.1446 0 141.037C0 218.93 63.1446 282.075 141.037 282.075ZM141.02 278.183C216.769 278.183 278.175 216.777 278.175 141.029C278.175 65.2801 216.769 3.87378 141.02 3.87378C65.2719 3.87378 3.86568 65.2801 3.86568 141.029C3.86568 216.777 65.2719 278.183 141.02 278.183Z" fill="#B80C17"/>
</svg>
